<?xml version="1.0" encoding="UTF-8" standalone="no"?><!DOCTYPE svg PUBLIC "-//W3C//DTD SVG 1.1//EN" "http://www.w3.org/Graphics/SVG/1.1/DTD/svg11.dtd"><!-- Generated by graphviz version 2.40.1 (20161225.0304)
 --><!-- Title: lab4 Pages: 1 --><svg xmlns="http://www.w3.org/2000/svg" xmlns:xlink="http://www.w3.org/1999/xlink" width="1766pt" height="1365pt" viewBox="0.00 0.00 1766.06 1365.20">
<g id="graph0" class="graph" transform="scale(1 1) rotate(0) translate(4 1361.2)">
<title>lab4</title>
<polygon fill="#ffffff" stroke="transparent" points="-4,4 -4,-1361.2 1762.0577,-1361.2 1762.0577,4 -4,4"/>
<!-- Actionable -->
<g id="node1" class="node">
<title>Actionable</title>
<polygon fill="none" stroke="#000000" points="731.1276,-.5 731.1276,-100.5 971.178,-100.5 971.178,-.5 731.1276,-.5"/>
<text text-anchor="middle" x="851.1528" y="-83.9" font-family="Times,serif" font-size="14.00" fill="#000000">&lt;&lt;interface&gt;&gt;</text>
<text text-anchor="middle" x="851.1528" y="-67.1" font-family="Times,serif" font-size="14.00" fill="#000000">Actionable</text>
<polyline fill="none" stroke="#000000" points="731.1276,-58.9 971.178,-58.9 "/>
<text text-anchor="start" x="739.1276" y="-42.3" font-family="Times,serif" font-size="14.00" fill="#000000">+ makeAction(String, Essence) : void</text>
<text text-anchor="start" x="739.1276" y="-25.5" font-family="Times,serif" font-size="14.00" fill="#000000"> + makeAction(String) : void</text>
<text text-anchor="start" x="739.1276" y="-8.7" font-family="Times,serif" font-size="14.00" fill="#000000"> + makeAction(String, Essence[]) : void</text>
</g>
<!-- AlreadyBlossomedException -->
<g id="node2" class="node">
<title>AlreadyBlossomedException</title>
<polygon fill="none" stroke="#000000" points="180.2016,-609.7 180.2016,-708.9 426.104,-708.9 426.104,-609.7 180.2016,-609.7"/>
<text text-anchor="middle" x="303.1528" y="-692.3" font-family="Times,serif" font-size="14.00" fill="#000000">AlreadyBlossomedException</text>
<polyline fill="none" stroke="#000000" points="180.2016,-684.1 426.104,-684.1 "/>
<text text-anchor="start" x="188.2016" y="-667.5" font-family="Times,serif" font-size="14.00" fill="#000000">+ AlreadyBlossomedException(String) : </text>
<polyline fill="none" stroke="#000000" points="180.2016,-659.3 426.104,-659.3 "/>
<text text-anchor="start" x="188.2016" y="-642.7" font-family="Times,serif" font-size="14.00" fill="#000000">- message : String</text>
<polyline fill="none" stroke="#000000" points="180.2016,-634.5 426.104,-634.5 "/>
<text text-anchor="start" x="188.2016" y="-617.9" font-family="Times,serif" font-size="14.00" fill="#000000">message : String</text>
</g>
<!-- Berry -->
<g id="node3" class="node">
<title>Berry</title>
<polygon fill="none" stroke="#000000" points="70.926,-1028.9 70.926,-1186.5 241.3796,-1186.5 241.3796,-1028.9 70.926,-1028.9"/>
<text text-anchor="middle" x="156.1528" y="-1169.9" font-family="Times,serif" font-size="14.00" fill="#000000">Berry</text>
<polyline fill="none" stroke="#000000" points="70.926,-1161.7 241.3796,-1161.7 "/>
<text text-anchor="start" x="78.926" y="-1145.1" font-family="Times,serif" font-size="14.00" fill="#000000">+ Berry(String, Color) : </text>
<text text-anchor="start" x="78.926" y="-1128.3" font-family="Times,serif" font-size="14.00" fill="#000000"> + Berry(String) : </text>
<polyline fill="none" stroke="#000000" points="70.926,-1120.1 241.3796,-1120.1 "/>
<text text-anchor="start" x="78.926" y="-1103.5" font-family="Times,serif" font-size="14.00" fill="#000000">- color : Color</text>
<polyline fill="none" stroke="#000000" points="70.926,-1095.3 241.3796,-1095.3 "/>
<text text-anchor="start" x="78.926" y="-1078.7" font-family="Times,serif" font-size="14.00" fill="#000000">+ crushInto(Essence) : void</text>
<polyline fill="none" stroke="#000000" points="70.926,-1070.5 241.3796,-1070.5 "/>
<text text-anchor="start" x="78.926" y="-1053.9" font-family="Times,serif" font-size="14.00" fill="#000000">color : Color</text>
<text text-anchor="start" x="78.926" y="-1037.1" font-family="Times,serif" font-size="14.00" fill="#000000"> fullName : String</text>
</g>
<!-- Color -->
<g id="node6" class="node">
<title>Color</title>
<polygon fill="none" stroke="#000000" points="0,-596.9 0,-721.7 162.3056,-721.7 162.3056,-596.9 0,-596.9"/>
<text text-anchor="middle" x="81.1528" y="-705.1" font-family="Times,serif" font-size="14.00" fill="#000000">&lt;&lt;enumeration&gt;&gt;</text>
<text text-anchor="middle" x="81.1528" y="-688.3" font-family="Times,serif" font-size="14.00" fill="#000000">Color</text>
<polyline fill="none" stroke="#000000" points="0,-680.1 162.3056,-680.1 "/>
<text text-anchor="start" x="8" y="-663.5" font-family="Times,serif" font-size="14.00" fill="#000000">- Color(String) : </text>
<polyline fill="none" stroke="#000000" points="0,-655.3 162.3056,-655.3 "/>
<text text-anchor="start" x="8" y="-638.7" font-family="Times,serif" font-size="14.00" fill="#000000">+ toString() : String</text>
<text text-anchor="start" x="8" y="-621.9" font-family="Times,serif" font-size="14.00" fill="#000000"> + valueOf(String) : Color</text>
<text text-anchor="start" x="8" y="-605.1" font-family="Times,serif" font-size="14.00" fill="#000000"> + values() : Color[]</text>
</g>
<!-- Berry&#45;&gt;Color -->
<g id="edge1" class="edge">
<title>Berry-&gt;Color</title>
<path fill="none" stroke="#595959" d="M89.926,-1016.8246C89.926,-1016.8246 89.926,-731.8342 89.926,-731.8342"/>
<polygon fill="#595959" stroke="#595959" points="89.926,-733.8342 85.926,-727.8342 89.926,-721.8342 93.926,-727.8342 89.926,-733.8342"/>
<polygon fill="#595959" stroke="#595959" points="89.926,-1028.8246 85.426,-1018.8246 89.926,-1023.8246 89.926,-1018.8246 89.926,-1018.8246 89.926,-1018.8246 89.926,-1023.8246 94.426,-1018.8246 89.926,-1028.8246 89.926,-1028.8246"/>
<text text-anchor="middle" x="75.5431" y="-1016.2246" font-family="Times,serif" font-size="14.00" fill="#000000">color</text>
<text text-anchor="middle" x="75.5431" y="-999.4246" font-family="Times,serif" font-size="14.00" fill="#000000">1</text>
<text text-anchor="middle" x="86.426" y="-726.0342" font-family="Times,serif" font-size="14.00" fill="#000000">1</text>
</g>
<!-- Crushable -->
<g id="node7" class="node">
<title>Crushable</title>
<polygon fill="none" stroke="#000000" points="108.926,-821.1 108.926,-887.5 279.3796,-887.5 279.3796,-821.1 108.926,-821.1"/>
<text text-anchor="middle" x="194.1528" y="-870.9" font-family="Times,serif" font-size="14.00" fill="#000000">&lt;&lt;interface&gt;&gt;</text>
<text text-anchor="middle" x="194.1528" y="-854.1" font-family="Times,serif" font-size="14.00" fill="#000000">Crushable</text>
<polyline fill="none" stroke="#000000" points="108.926,-845.9 279.3796,-845.9 "/>
<text text-anchor="start" x="116.926" y="-829.3" font-family="Times,serif" font-size="14.00" fill="#000000">+ crushInto(Essence) : void</text>
</g>
<!-- Berry&#45;&gt;Crushable -->
<g id="edge2" class="edge">
<title>Berry-&gt;Crushable</title>
<path fill="none" stroke="#008200" stroke-dasharray="5,2" d="M175.1528,-1028.565C175.1528,-1028.565 175.1528,-897.5146 175.1528,-897.5146"/>
<polygon fill="#008200" stroke="#008200" points="178.6529,-897.5145 175.1528,-887.5146 171.6529,-897.5146 178.6529,-897.5145"/>
</g>
<!-- InanimateObject -->
<g id="node13" class="node">
<title>InanimateObject</title>
<polygon fill="none" stroke="#000000" points="632.5908,-401.3 632.5908,-558.9 807.7148,-558.9 807.7148,-401.3 632.5908,-401.3"/>
<text text-anchor="middle" x="720.1528" y="-542.3" font-family="Times,serif" font-size="14.00" fill="#000000">InanimateObject</text>
<polyline fill="none" stroke="#000000" points="632.5908,-534.1 807.7148,-534.1 "/>
<text text-anchor="start" x="640.5908" y="-517.5" font-family="Times,serif" font-size="14.00" fill="#000000">+ InanimateObject(String) : </text>
<polyline fill="none" stroke="#000000" points="632.5908,-509.3 807.7148,-509.3 "/>
<text text-anchor="start" x="640.5908" y="-492.7" font-family="Times,serif" font-size="14.00" fill="#000000">- state : String</text>
<polyline fill="none" stroke="#000000" points="632.5908,-484.5 807.7148,-484.5 "/>
<text text-anchor="start" x="640.5908" y="-467.9" font-family="Times,serif" font-size="14.00" fill="#000000">+ changeState(String) : void</text>
<text text-anchor="start" x="640.5908" y="-451.1" font-family="Times,serif" font-size="14.00" fill="#000000"> + announceState() : void</text>
<polyline fill="none" stroke="#000000" points="632.5908,-442.9 807.7148,-442.9 "/>
<text text-anchor="start" x="640.5908" y="-426.3" font-family="Times,serif" font-size="14.00" fill="#000000">state : String</text>
<text text-anchor="start" x="640.5908" y="-409.5" font-family="Times,serif" font-size="14.00" fill="#000000"> fullName : String</text>
</g>
<!-- Berry&#45;&gt;InanimateObject -->
<g id="edge3" class="edge">
<title>Berry-&gt;InanimateObject</title>
<path fill="none" stroke="#000082" d="M241.6752,-1049C399.6563,-1049 721.2718,-1049 721.2718,-1049 721.2718,-1049 721.2718,-568.9042 721.2718,-568.9042"/>
<polygon fill="#000082" stroke="#000082" points="724.7718,-568.9042 721.2718,-558.9042 717.7718,-568.9043 724.7718,-568.9042"/>
</g>
<!-- Bloomable -->
<g id="node4" class="node">
<title>Bloomable</title>
<polygon fill="none" stroke="#000000" points="444.5691,-626.1 444.5691,-692.5 563.7365,-692.5 563.7365,-626.1 444.5691,-626.1"/>
<text text-anchor="middle" x="504.1528" y="-675.9" font-family="Times,serif" font-size="14.00" fill="#000000">&lt;&lt;interface&gt;&gt;</text>
<text text-anchor="middle" x="504.1528" y="-659.1" font-family="Times,serif" font-size="14.00" fill="#000000">Bloomable</text>
<polyline fill="none" stroke="#000000" points="444.5691,-650.9 563.7365,-650.9 "/>
<text text-anchor="start" x="452.5691" y="-634.3" font-family="Times,serif" font-size="14.00" fill="#000000">+ blossom() : void</text>
</g>
<!-- Bush -->
<g id="node5" class="node">
<title>Bush</title>
<polygon fill="none" stroke="#000000" points="351.5901,-1070.5 351.5901,-1144.9 526.7155,-1144.9 526.7155,-1070.5 351.5901,-1070.5"/>
<text text-anchor="middle" x="439.1528" y="-1128.3" font-family="Times,serif" font-size="14.00" fill="#000000">Bush</text>
<polyline fill="none" stroke="#000000" points="351.5901,-1120.1 526.7155,-1120.1 "/>
<text text-anchor="start" x="359.5901" y="-1103.5" font-family="Times,serif" font-size="14.00" fill="#000000">+ Bush(String) : </text>
<polyline fill="none" stroke="#000000" points="351.5901,-1095.3 526.7155,-1095.3 "/>
<text text-anchor="start" x="359.5901" y="-1078.7" font-family="Times,serif" font-size="14.00" fill="#000000">+ filledWith(Essence) : void</text>
</g>
<!-- Plant -->
<g id="node17" class="node">
<title>Plant</title>
<polygon fill="none" stroke="#000000" points="581.8482,-622.1 581.8482,-696.5 692.4574,-696.5 692.4574,-622.1 581.8482,-622.1"/>
<text text-anchor="middle" x="637.1528" y="-679.9" font-family="Times,serif" font-size="14.00" fill="#000000">Plant</text>
<polyline fill="none" stroke="#000000" points="581.8482,-671.7 692.4574,-671.7 "/>
<text text-anchor="start" x="589.8482" y="-655.1" font-family="Times,serif" font-size="14.00" fill="#000000">+ Plant(String) : </text>
<polyline fill="none" stroke="#000000" points="581.8482,-646.9 692.4574,-646.9 "/>
<text text-anchor="start" x="589.8482" y="-630.3" font-family="Times,serif" font-size="14.00" fill="#000000">+ grow() : void</text>
</g>
<!-- Bush&#45;&gt;Plant -->
<g id="edge4" class="edge">
<title>Bush-&gt;Plant</title>
<path fill="none" stroke="#000082" d="M510.0276,-1070.334C510.0276,-1039.2277 510.0276,-1000 510.0276,-1000 510.0276,-1000 617.7643,-1000 617.7643,-1000 617.7643,-1000 617.7643,-706.7354 617.7643,-706.7354"/>
<polygon fill="#000082" stroke="#000082" points="621.2644,-706.7354 617.7643,-696.7354 614.2644,-706.7355 621.2644,-706.7354"/>
</g>
<!-- Essence -->
<g id="node8" class="node">
<title>Essence</title>
<polygon fill="none" stroke="#000000" points="731.1276,-138.5 731.1276,-363.3 971.178,-363.3 971.178,-138.5 731.1276,-138.5"/>
<text text-anchor="middle" x="851.1528" y="-346.7" font-family="Times,serif" font-size="14.00" fill="#000000">Essence</text>
<polyline fill="none" stroke="#000000" points="731.1276,-338.5 971.178,-338.5 "/>
<text text-anchor="start" x="739.1276" y="-321.9" font-family="Times,serif" font-size="14.00" fill="#000000">+ Essence(String) : </text>
<polyline fill="none" stroke="#000000" points="731.1276,-313.7 971.178,-313.7 "/>
<text text-anchor="start" x="739.1276" y="-297.1" font-family="Times,serif" font-size="14.00" fill="#000000">- name : String</text>
<polyline fill="none" stroke="#000000" points="731.1276,-288.9 971.178,-288.9 "/>
<text text-anchor="start" x="739.1276" y="-272.3" font-family="Times,serif" font-size="14.00" fill="#000000">+ equals(Object) : boolean</text>
<text text-anchor="start" x="739.1276" y="-255.5" font-family="Times,serif" font-size="14.00" fill="#000000"> + makeAction(String) : void</text>
<text text-anchor="start" x="739.1276" y="-238.7" font-family="Times,serif" font-size="14.00" fill="#000000"> + toString() : String</text>
<text text-anchor="start" x="739.1276" y="-221.9" font-family="Times,serif" font-size="14.00" fill="#000000"> + makeAction(String, Essence) : void</text>
<text text-anchor="start" x="739.1276" y="-205.1" font-family="Times,serif" font-size="14.00" fill="#000000"> + makeAction(String, Essence[]) : void</text>
<text text-anchor="start" x="739.1276" y="-188.3" font-family="Times,serif" font-size="14.00" fill="#000000"> + hashCode() : int</text>
<polyline fill="none" stroke="#000000" points="731.1276,-180.1 971.178,-180.1 "/>
<text text-anchor="start" x="739.1276" y="-163.5" font-family="Times,serif" font-size="14.00" fill="#000000">name : String</text>
<text text-anchor="start" x="739.1276" y="-146.7" font-family="Times,serif" font-size="14.00" fill="#000000"> fullName : String</text>
</g>
<!-- Essence&#45;&gt;Actionable -->
<g id="edge5" class="edge">
<title>Essence-&gt;Actionable</title>
<path fill="none" stroke="#008200" stroke-dasharray="5,2" d="M851.1528,-138.3984C851.1528,-138.3984 851.1528,-110.5887 851.1528,-110.5887"/>
<polygon fill="#008200" stroke="#008200" points="854.6529,-110.5887 851.1528,-100.5887 847.6529,-110.5888 854.6529,-110.5887"/>
</g>
<!-- Feelable -->
<g id="node9" class="node">
<title>Feelable</title>
<polygon fill="none" stroke="#000000" points="1578.2479,-812.7 1578.2479,-895.9 1758.0577,-895.9 1758.0577,-812.7 1578.2479,-812.7"/>
<text text-anchor="middle" x="1668.1528" y="-879.3" font-family="Times,serif" font-size="14.00" fill="#000000">&lt;&lt;interface&gt;&gt;</text>
<text text-anchor="middle" x="1668.1528" y="-862.5" font-family="Times,serif" font-size="14.00" fill="#000000">Feelable</text>
<polyline fill="none" stroke="#000000" points="1578.2479,-854.3 1758.0577,-854.3 "/>
<text text-anchor="start" x="1586.2479" y="-837.7" font-family="Times,serif" font-size="14.00" fill="#000000">+ changeMood(String) : void</text>
<text text-anchor="start" x="1586.2479" y="-820.9" font-family="Times,serif" font-size="14.00" fill="#000000"> + announceMood() : void</text>
</g>
<!-- Flower -->
<g id="node10" class="node">
<title>Flower</title>
<polygon fill="none" stroke="#000000" points="332.966,-775.5 332.966,-933.1 493.3396,-933.1 493.3396,-775.5 332.966,-775.5"/>
<text text-anchor="middle" x="413.1528" y="-916.5" font-family="Times,serif" font-size="14.00" fill="#000000">Flower</text>
<polyline fill="none" stroke="#000000" points="332.966,-908.3 493.3396,-908.3 "/>
<text text-anchor="start" x="340.966" y="-891.7" font-family="Times,serif" font-size="14.00" fill="#000000">+ Flower(String, Color) : </text>
<text text-anchor="start" x="340.966" y="-874.9" font-family="Times,serif" font-size="14.00" fill="#000000"> + Flower(String) : </text>
<polyline fill="none" stroke="#000000" points="332.966,-866.7 493.3396,-866.7 "/>
<text text-anchor="start" x="340.966" y="-850.1" font-family="Times,serif" font-size="14.00" fill="#000000">- color : Color</text>
<polyline fill="none" stroke="#000000" points="332.966,-841.9 493.3396,-841.9 "/>
<text text-anchor="start" x="340.966" y="-825.3" font-family="Times,serif" font-size="14.00" fill="#000000">+ blossom() : void</text>
<polyline fill="none" stroke="#000000" points="332.966,-817.1 493.3396,-817.1 "/>
<text text-anchor="start" x="340.966" y="-800.5" font-family="Times,serif" font-size="14.00" fill="#000000">color : Color</text>
<text text-anchor="start" x="340.966" y="-783.7" font-family="Times,serif" font-size="14.00" fill="#000000"> fullName : String</text>
</g>
<!-- Flower&#45;&gt;AlreadyBlossomedException -->
<g id="edge6" class="edge">
<title>Flower-&gt;AlreadyBlossomedException</title>
<path fill="none" stroke="#595959" stroke-dasharray="5,2" d="M379.535,-775.2671C379.535,-775.2671 379.535,-719.033 379.535,-719.033"/>
<polygon fill="#595959" stroke="#595959" points="379.535,-709.033 384.0351,-719.033 379.535,-714.033 379.5351,-719.033 379.5351,-719.033 379.5351,-719.033 379.535,-714.033 375.0351,-719.033 379.535,-709.033 379.535,-709.033"/>
<text text-anchor="middle" x="331.5182" y="-744.4" font-family="Times,serif" font-size="14.00" fill="#000000">«create»</text>
</g>
<!-- Flower&#45;&gt;Bloomable -->
<g id="edge7" class="edge">
<title>Flower-&gt;Bloomable</title>
<path fill="none" stroke="#008200" stroke-dasharray="5,2" d="M468.9544,-775.2671C468.9544,-775.2671 468.9544,-702.9257 468.9544,-702.9257"/>
<polygon fill="#008200" stroke="#008200" points="472.4544,-702.9257 468.9544,-692.9257 465.4544,-702.9258 472.4544,-702.9257"/>
</g>
<!-- Flower&#45;&gt;Color -->
<g id="edge8" class="edge">
<title>Flower-&gt;Color</title>
<path fill="none" stroke="#595959" d="M320.8776,-797C320.8776,-797 135.6158,-797 135.6158,-797 135.6158,-797 135.6158,-731.7037 135.6158,-731.7037"/>
<polygon fill="#595959" stroke="#595959" points="320.8776,-797.0001 326.8776,-793 332.8776,-797 326.8776,-801 320.8776,-797.0001"/>
<polygon fill="#595959" stroke="#595959" points="135.6158,-721.7037 140.1159,-731.7037 135.6158,-726.7037 135.6159,-731.7037 135.6159,-731.7037 135.6159,-731.7037 135.6158,-726.7037 131.1159,-731.7038 135.6158,-721.7037 135.6158,-721.7037"/>
<text text-anchor="middle" x="149.9987" y="-742.7037" font-family="Times,serif" font-size="14.00" fill="#000000">color</text>
<text text-anchor="middle" x="149.9987" y="-725.9037" font-family="Times,serif" font-size="14.00" fill="#000000">1</text>
<text text-anchor="middle" x="329.3776" y="-801.2" font-family="Times,serif" font-size="14.00" fill="#000000">1</text>
</g>
<!-- Flower&#45;&gt;Plant -->
<g id="edge9" class="edge">
<title>Flower-&gt;Plant</title>
<path fill="none" stroke="#000082" d="M493.3939,-793C543.9834,-793 599.8063,-793 599.8063,-793 599.8063,-793 599.8063,-706.5429 599.8063,-706.5429"/>
<polygon fill="#000082" stroke="#000082" points="603.3063,-706.5429 599.8063,-696.5429 596.3063,-706.5429 603.3063,-706.5429"/>
</g>
<!-- Fruit -->
<g id="node11" class="node">
<title>Fruit</title>
<polygon fill="none" stroke="#000000" points="544.6252,-1070.5 544.6252,-1144.9 653.6804,-1144.9 653.6804,-1070.5 544.6252,-1070.5"/>
<text text-anchor="middle" x="599.1528" y="-1128.3" font-family="Times,serif" font-size="14.00" fill="#000000">Fruit</text>
<polyline fill="none" stroke="#000000" points="544.6252,-1120.1 653.6804,-1120.1 "/>
<text text-anchor="start" x="552.6252" y="-1103.5" font-family="Times,serif" font-size="14.00" fill="#000000">+ Fruit(String) : </text>
<polyline fill="none" stroke="#000000" points="544.6252,-1095.3 653.6804,-1095.3 "/>
<text text-anchor="start" x="552.6252" y="-1078.7" font-family="Times,serif" font-size="14.00" fill="#000000">+ ripen() : void</text>
</g>
<!-- Fruit&#45;&gt;Flower -->
<g id="edge10" class="edge">
<title>Fruit-&gt;Flower</title>
<path fill="none" stroke="#820000" d="M554.1809,-1062.138C554.1809,-1062.138 554.1809,-908 554.1809,-908 554.1809,-908 525.2247,-908 493.5538,-908"/>
<ellipse fill="none" stroke="#820000" cx="554.1809" cy="-1066.138" rx="4" ry="4"/>
</g>
<!-- Fruit&#45;&gt;Plant -->
<g id="edge11" class="edge">
<title>Fruit-&gt;Plant</title>
<path fill="none" stroke="#000082" d="M635.7224,-1070.2409C635.7224,-1070.2409 635.7224,-706.6519 635.7224,-706.6519"/>
<polygon fill="#000082" stroke="#000082" points="639.2224,-706.6519 635.7224,-696.6519 632.2224,-706.6519 639.2224,-706.6519"/>
</g>
<!-- Growable -->
<g id="node12" class="node">
<title>Growable</title>
<polygon fill="none" stroke="#000000" points="513.5207,-446.9 513.5207,-513.3 614.7849,-513.3 614.7849,-446.9 513.5207,-446.9"/>
<text text-anchor="middle" x="564.1528" y="-496.7" font-family="Times,serif" font-size="14.00" fill="#000000">&lt;&lt;interface&gt;&gt;</text>
<text text-anchor="middle" x="564.1528" y="-479.9" font-family="Times,serif" font-size="14.00" fill="#000000">Growable</text>
<polyline fill="none" stroke="#000000" points="513.5207,-471.7 614.7849,-471.7 "/>
<text text-anchor="start" x="521.5207" y="-455.1" font-family="Times,serif" font-size="14.00" fill="#000000">+ grow() : void</text>
</g>
<!-- InanimateObject&#45;&gt;Essence -->
<g id="edge12" class="edge">
<title>InanimateObject-&gt;Essence</title>
<path fill="none" stroke="#000082" d="M769.4212,-401.2224C769.4212,-401.2224 769.4212,-373.5433 769.4212,-373.5433"/>
<polygon fill="#000082" stroke="#000082" points="772.9213,-373.5433 769.4212,-363.5433 765.9213,-373.5434 772.9213,-373.5433"/>
</g>
<!-- Stateable -->
<g id="node19" class="node">
<title>Stateable</title>
<polygon fill="none" stroke="#000000" points="538.9737,-209.3 538.9737,-292.5 713.3319,-292.5 713.3319,-209.3 538.9737,-209.3"/>
<text text-anchor="middle" x="626.1528" y="-275.9" font-family="Times,serif" font-size="14.00" fill="#000000">&lt;&lt;interface&gt;&gt;</text>
<text text-anchor="middle" x="626.1528" y="-259.1" font-family="Times,serif" font-size="14.00" fill="#000000">Stateable</text>
<polyline fill="none" stroke="#000000" points="538.9737,-250.9 713.3319,-250.9 "/>
<text text-anchor="start" x="546.9737" y="-234.3" font-family="Times,serif" font-size="14.00" fill="#000000">+ changeState(String) : void</text>
<text text-anchor="start" x="546.9737" y="-217.5" font-family="Times,serif" font-size="14.00" fill="#000000"> + announceState() : void</text>
</g>
<!-- InanimateObject&#45;&gt;Stateable -->
<g id="edge13" class="edge">
<title>InanimateObject-&gt;Stateable</title>
<path fill="none" stroke="#008200" stroke-dasharray="5,2" d="M672.9614,-401.2224C672.9614,-401.2224 672.9614,-302.5434 672.9614,-302.5434"/>
<polygon fill="#008200" stroke="#008200" points="676.4614,-302.5434 672.9614,-292.5434 669.4614,-302.5435 676.4614,-302.5434"/>
</g>
<!-- Main -->
<g id="node14" class="node">
<title>Main</title>
<polygon fill="none" stroke="#000000" points="527.1336,-1282.3 527.1336,-1356.7 671.172,-1356.7 671.172,-1282.3 527.1336,-1282.3"/>
<text text-anchor="middle" x="599.1528" y="-1340.1" font-family="Times,serif" font-size="14.00" fill="#000000">Main</text>
<polyline fill="none" stroke="#000000" points="527.1336,-1331.9 671.172,-1331.9 "/>
<text text-anchor="start" x="535.1336" y="-1315.3" font-family="Times,serif" font-size="14.00" fill="#000000">+ Main() : </text>
<polyline fill="none" stroke="#000000" points="527.1336,-1307.1 671.172,-1307.1 "/>
<text text-anchor="start" x="535.1336" y="-1290.5" font-family="Times,serif" font-size="14.00" fill="#000000">+ main(String[]) : void</text>
</g>
<!-- Main&#45;&gt;Berry -->
<g id="edge14" class="edge">
<title>Main-&gt;Berry</title>
<path fill="none" stroke="#595959" stroke-dasharray="5,2" d="M530.0489,-1282.1528C530.0489,-1238.7485 530.0489,-1173 530.0489,-1173 530.0489,-1173 251.4635,-1173 251.4635,-1173"/>
<polygon fill="#595959" stroke="#595959" points="241.4635,-1173 251.4635,-1168.5001 246.4635,-1173 251.4635,-1173.0001 251.4635,-1173.0001 251.4635,-1173.0001 246.4635,-1173 251.4634,-1177.5001 241.4635,-1173 241.4635,-1173"/>
<text text-anchor="middle" x="229.5182" y="-1251.2" font-family="Times,serif" font-size="14.00" fill="#000000">«create»</text>
</g>
<!-- Main&#45;&gt;Berry -->
<g id="edge15" class="edge">
<title>Main-&gt;Berry</title>
<path fill="none" stroke="#595959" d="M532.9641,-1270.2747C532.9641,-1270.2747 532.9641,-1159 532.9641,-1159 532.9641,-1159 251.6571,-1159 251.6571,-1159"/>
<polygon fill="#595959" stroke="#595959" points="532.9642,-1270.2747 536.9642,-1276.2747 532.9641,-1282.2747 528.9642,-1276.2746 532.9642,-1270.2747"/>
<polygon fill="#595959" stroke="#595959" points="241.6571,-1159 251.6572,-1154.5001 246.6571,-1159 251.6571,-1159.0001 251.6571,-1159.0001 251.6571,-1159.0001 246.6571,-1159 251.6571,-1163.5001 241.6571,-1159 241.6571,-1159"/>
<text text-anchor="middle" x="258.77" y="-1180" font-family="Times,serif" font-size="14.00" fill="#000000">plums</text>
<text text-anchor="middle" x="258.77" y="-1163.2" font-family="Times,serif" font-size="14.00" fill="#000000">*</text>
<text text-anchor="middle" x="529.4641" y="-1269.6747" font-family="Times,serif" font-size="14.00" fill="#000000">1</text>
</g>
<!-- Main&#45;&gt;Bush -->
<g id="edge16" class="edge">
<title>Main-&gt;Bush</title>
<path fill="none" stroke="#595959" stroke-dasharray="5,2" d="M538.7947,-1282.1764C538.7947,-1218.3389 538.7947,-1095 538.7947,-1095 538.7947,-1095 536.9731,-1095 536.9731,-1095"/>
<polygon fill="#595959" stroke="#595959" points="526.9731,-1095 536.9732,-1090.5001 531.9731,-1095 536.9731,-1095.0001 536.9731,-1095.0001 536.9731,-1095.0001 531.9731,-1095 536.9731,-1099.5001 526.9731,-1095 526.9731,-1095"/>
<text text-anchor="middle" x="481.5182" y="-1251.2" font-family="Times,serif" font-size="14.00" fill="#000000">«create»</text>
</g>
<!-- Main&#45;&gt;Bush -->
<g id="edge17" class="edge">
<title>Main-&gt;Bush</title>
<path fill="none" stroke="#595959" d="M535.8794,-1269.9756C535.8794,-1269.9756 535.8794,-1120 535.8794,-1120 535.8794,-1120 534.9868,-1120 534.9868,-1120"/>
<polygon fill="#595959" stroke="#595959" points="535.8795,-1269.9756 539.8794,-1275.9756 535.8794,-1281.9756 531.8794,-1275.9755 535.8795,-1269.9756"/>
<polygon fill="#595959" stroke="#595959" points="526.953,-1120 536.953,-1115.5001 531.953,-1120.0001 536.953,-1120.0001 536.953,-1120.0001 536.953,-1120.0001 531.953,-1120.0001 536.9529,-1124.5001 526.953,-1120 526.953,-1120"/>
<text text-anchor="middle" x="546.0049" y="-1141" font-family="Times,serif" font-size="14.00" fill="#000000">bushes</text>
<text text-anchor="middle" x="546.0049" y="-1124.2" font-family="Times,serif" font-size="14.00" fill="#000000">1</text>
<text text-anchor="middle" x="539.3794" y="-1269.3756" font-family="Times,serif" font-size="14.00" fill="#000000">1</text>
</g>
<!-- Main&#45;&gt;Flower -->
<g id="edge18" class="edge">
<title>Main-&gt;Flower</title>
<path fill="none" stroke="#595959" stroke-dasharray="5,2" d="M541.7099,-1282.0101C541.7099,-1182.809 541.7099,-921 541.7099,-921 541.7099,-921 503.4742,-921 503.4742,-921"/>
<polygon fill="#595959" stroke="#595959" points="493.4742,-921 503.4743,-916.5001 498.4742,-921 503.4742,-921.0001 503.4742,-921.0001 503.4742,-921.0001 498.4742,-921 503.4742,-925.5001 493.4742,-921 493.4742,-921"/>
<text text-anchor="middle" x="305.5182" y="-1103.5" font-family="Times,serif" font-size="14.00" fill="#000000">«create»</text>
</g>
<!-- Main&#45;&gt;Fruit -->
<g id="edge19" class="edge">
<title>Main-&gt;Fruit</title>
<path fill="none" stroke="#595959" stroke-dasharray="5,2" d="M599.1528,-1282.122C599.1528,-1282.122 599.1528,-1155.06 599.1528,-1155.06"/>
<polygon fill="#595959" stroke="#595959" points="599.1528,-1145.06 603.6529,-1155.0599 599.1528,-1150.06 599.1529,-1155.06 599.1529,-1155.06 599.1529,-1155.06 599.1528,-1150.06 594.6529,-1155.06 599.1528,-1145.06 599.1528,-1145.06"/>
<text text-anchor="middle" x="627.5182" y="-1251.2" font-family="Times,serif" font-size="14.00" fill="#000000">«create»</text>
</g>
<!-- Main&#45;&gt;InanimateObject -->
<g id="edge20" class="edge">
<title>Main-&gt;InanimateObject</title>
<path fill="none" stroke="#595959" d="M659.5109,-1270.1459C659.5109,-1270.1459 659.5109,-1195 659.5109,-1195 659.5109,-1195 750.0861,-1195 750.0861,-1195 750.0861,-1195 750.0861,-568.9948 750.0861,-568.9948"/>
<polygon fill="#595959" stroke="#595959" points="659.511,-1270.1459 663.511,-1276.1459 659.5109,-1282.1459 655.511,-1276.1459 659.511,-1270.1459"/>
<polygon fill="#595959" stroke="#595959" points="750.0861,-558.9948 754.5862,-568.9947 750.0861,-563.9948 750.0862,-568.9948 750.0862,-568.9948 750.0862,-568.9948 750.0861,-563.9948 745.5862,-568.9948 750.0861,-558.9948 750.0861,-558.9948"/>
<text text-anchor="middle" x="781.1892" y="-579.9948" font-family="Times,serif" font-size="14.00" fill="#000000">manuscript</text>
<text text-anchor="middle" x="781.1892" y="-563.1948" font-family="Times,serif" font-size="14.00" fill="#000000">1</text>
<text text-anchor="middle" x="656.0109" y="-1269.5459" font-family="Times,serif" font-size="14.00" fill="#000000">1</text>
</g>
<!-- Main&#45;&gt;InanimateObject -->
<g id="edge21" class="edge">
<title>Main-&gt;InanimateObject</title>
<path fill="none" stroke="#595959" stroke-dasharray="5,2" d="M662.4262,-1281.9974C662.4262,-1247.9407 662.4262,-1203 662.4262,-1203 662.4262,-1203 778.9005,-1203 778.9005,-1203 778.9005,-1203 778.9005,-569.1847 778.9005,-569.1847"/>
<polygon fill="#595959" stroke="#595959" points="778.9005,-559.1847 783.4005,-569.1846 778.9005,-564.1847 778.9005,-569.1847 778.9005,-569.1847 778.9005,-569.1847 778.9005,-564.1847 774.4005,-569.1847 778.9005,-559.1847 778.9005,-559.1847"/>
<text text-anchor="middle" x="794.5182" y="-850.1" font-family="Times,serif" font-size="14.00" fill="#000000">«create»</text>
</g>
<!-- Person -->
<g id="node16" class="node">
<title>Person</title>
<polygon fill="none" stroke="#000000" points="968.2479,-986.9 968.2479,-1228.5 1148.0577,-1228.5 1148.0577,-986.9 968.2479,-986.9"/>
<text text-anchor="middle" x="1058.1528" y="-1211.9" font-family="Times,serif" font-size="14.00" fill="#000000">Person</text>
<polyline fill="none" stroke="#000000" points="968.2479,-1203.7 1148.0577,-1203.7 "/>
<text text-anchor="start" x="976.2479" y="-1187.1" font-family="Times,serif" font-size="14.00" fill="#000000">+ Person(String) : </text>
<polyline fill="none" stroke="#000000" points="968.2479,-1178.9 1148.0577,-1178.9 "/>
<text text-anchor="start" x="976.2479" y="-1162.3" font-family="Times,serif" font-size="14.00" fill="#000000">- mood : String</text>
<polyline fill="none" stroke="#000000" points="968.2479,-1154.1 1148.0577,-1154.1 "/>
<text text-anchor="start" x="976.2479" y="-1137.5" font-family="Times,serif" font-size="14.00" fill="#000000">+ changeMood(String) : void</text>
<text text-anchor="start" x="976.2479" y="-1120.7" font-family="Times,serif" font-size="14.00" fill="#000000"> + wantsToDo(String) : void</text>
<text text-anchor="start" x="976.2479" y="-1103.9" font-family="Times,serif" font-size="14.00" fill="#000000"> + visualize(String) : void</text>
<text text-anchor="start" x="976.2479" y="-1087.1" font-family="Times,serif" font-size="14.00" fill="#000000"> + remember(String) : void</text>
<text text-anchor="start" x="976.2479" y="-1070.3" font-family="Times,serif" font-size="14.00" fill="#000000"> + stareAt(Essence) : void</text>
<text text-anchor="start" x="976.2479" y="-1053.5" font-family="Times,serif" font-size="14.00" fill="#000000"> + announceMood() : void</text>
<text text-anchor="start" x="976.2479" y="-1036.7" font-family="Times,serif" font-size="14.00" fill="#000000"> + think(String) : void</text>
<polyline fill="none" stroke="#000000" points="968.2479,-1028.5 1148.0577,-1028.5 "/>
<text text-anchor="start" x="976.2479" y="-1011.9" font-family="Times,serif" font-size="14.00" fill="#000000">mood : String</text>
<text text-anchor="start" x="976.2479" y="-995.1" font-family="Times,serif" font-size="14.00" fill="#000000"> fullName : String</text>
</g>
<!-- Main&#45;&gt;Person -->
<g id="edge22" class="edge">
<title>Main-&gt;Person</title>
<path fill="none" stroke="#595959" d="M668.2567,-1270.1668C668.2567,-1270.1668 668.2567,-1220 668.2567,-1220 668.2567,-1220 958.2132,-1220 958.2132,-1220"/>
<polygon fill="#595959" stroke="#595959" points="668.2568,-1270.1668 672.2568,-1276.1668 668.2567,-1282.1668 664.2568,-1276.1668 668.2568,-1270.1668"/>
<polygon fill="#595959" stroke="#595959" points="968.2132,-1220 958.2133,-1224.5001 963.2132,-1220 958.2132,-1220.0001 958.2132,-1220.0001 958.2132,-1220.0001 963.2132,-1220 958.2132,-1215.5001 968.2132,-1220 968.2132,-1220"/>
<text text-anchor="middle" x="942.5708" y="-1207.4" font-family="Times,serif" font-size="14.00" fill="#000000">character</text>
<text text-anchor="middle" x="942.5708" y="-1190.6" font-family="Times,serif" font-size="14.00" fill="#000000">1</text>
<text text-anchor="middle" x="671.7567" y="-1269.5668" font-family="Times,serif" font-size="14.00" fill="#000000">1</text>
</g>
<!-- Main&#45;&gt;Person -->
<g id="edge23" class="edge">
<title>Main-&gt;Person</title>
<path fill="none" stroke="#595959" stroke-dasharray="5,2" d="M665.3415,-1282.2034C665.3415,-1251.1548 665.3415,-1212 665.3415,-1212 665.3415,-1212 958.0339,-1212 958.0339,-1212"/>
<polygon fill="#595959" stroke="#595959" points="968.0339,-1212 958.034,-1216.5001 963.0339,-1212 958.0339,-1212.0001 958.0339,-1212.0001 958.0339,-1212.0001 963.0339,-1212 958.0339,-1207.5001 968.0339,-1212 968.0339,-1212"/>
<text text-anchor="middle" x="957.5182" y="-1251.2" font-family="Times,serif" font-size="14.00" fill="#000000">«create»</text>
</g>
<!-- Main&#45;&gt;Plant -->
<g id="edge24" class="edge">
<title>Main-&gt;Plant</title>
<path fill="none" stroke="#595959" stroke-dasharray="5,2" d="M656.5957,-1282.1132C656.5957,-1282.1132 656.5957,-706.685 656.5957,-706.685"/>
<polygon fill="#595959" stroke="#595959" points="656.5957,-696.685 661.0958,-706.6849 656.5957,-701.685 656.5958,-706.685 656.5958,-706.685 656.5958,-706.685 656.5957,-701.685 652.0958,-706.685 656.5957,-696.685 656.5957,-696.685"/>
<text text-anchor="middle" x="676.5182" y="-955.8" font-family="Times,serif" font-size="14.00" fill="#000000">«create»</text>
</g>
<!-- NameException -->
<g id="node15" class="node">
<title>NameException</title>
<polygon fill="none" stroke="#000000" points="879.1427,-829.5 879.1427,-879.1 1051.1629,-879.1 1051.1629,-829.5 879.1427,-829.5"/>
<text text-anchor="middle" x="965.1528" y="-862.5" font-family="Times,serif" font-size="14.00" fill="#000000">NameException</text>
<polyline fill="none" stroke="#000000" points="879.1427,-854.3 1051.1629,-854.3 "/>
<text text-anchor="start" x="887.1427" y="-837.7" font-family="Times,serif" font-size="14.00" fill="#000000">+ NameException(String) : </text>
</g>
<!-- Person&#45;&gt;Essence -->
<g id="edge25" class="edge">
<title>Person-&gt;Essence</title>
<path fill="none" stroke="#000082" d="M968.1626,-1014C917.1198,-1014 863.3464,-1014 863.3464,-1014 863.3464,-1014 863.3464,-373.498 863.3464,-373.498"/>
<polygon fill="#000082" stroke="#000082" points="866.8464,-373.498 863.3464,-363.498 859.8464,-373.4981 866.8464,-373.498"/>
</g>
<!-- Person&#45;&gt;Feelable -->
<g id="edge26" class="edge">
<title>Person-&gt;Feelable</title>
<path fill="none" stroke="#008200" stroke-dasharray="5,2" d="M1121.8448,-986.6092C1121.8448,-937.4408 1121.8448,-892 1121.8448,-892 1121.8448,-892 1568.2472,-892 1568.2472,-892"/>
<polygon fill="#008200" stroke="#008200" points="1568.2472,-895.5001 1578.2472,-892 1568.2472,-888.5001 1568.2472,-895.5001"/>
</g>
<!-- Person&#45;&gt;NameException -->
<g id="edge27" class="edge">
<title>Person-&gt;NameException</title>
<path fill="none" stroke="#595959" stroke-dasharray="5,2" d="M1009.7054,-986.5663C1009.7054,-986.5663 1009.7054,-889.4496 1009.7054,-889.4496"/>
<polygon fill="#595959" stroke="#595959" points="1009.7054,-879.4496 1014.2055,-889.4495 1009.7054,-884.4496 1009.7055,-889.4496 1009.7055,-889.4496 1009.7055,-889.4496 1009.7054,-884.4496 1005.2055,-889.4496 1009.7054,-879.4496 1009.7054,-879.4496"/>
<text text-anchor="middle" x="993.5182" y="-955.8" font-family="Times,serif" font-size="14.00" fill="#000000">«create»</text>
</g>
<!-- Rememberable -->
<g id="node18" class="node">
<title>Rememberable</title>
<polygon fill="none" stroke="#000000" points="1069.419,-821.1 1069.419,-887.5 1232.8866,-887.5 1232.8866,-821.1 1069.419,-821.1"/>
<text text-anchor="middle" x="1151.1528" y="-870.9" font-family="Times,serif" font-size="14.00" fill="#000000">&lt;&lt;interface&gt;&gt;</text>
<text text-anchor="middle" x="1151.1528" y="-854.1" font-family="Times,serif" font-size="14.00" fill="#000000">Rememberable</text>
<polyline fill="none" stroke="#000000" points="1069.419,-845.9 1232.8866,-845.9 "/>
<text text-anchor="start" x="1077.419" y="-829.3" font-family="Times,serif" font-size="14.00" fill="#000000">+ remember(String) : void</text>
</g>
<!-- Person&#45;&gt;Rememberable -->
<g id="edge28" class="edge">
<title>Person-&gt;Rememberable</title>
<path fill="none" stroke="#008200" stroke-dasharray="5,2" d="M1095.6319,-986.5663C1095.6319,-986.5663 1095.6319,-897.5894 1095.6319,-897.5894"/>
<polygon fill="#008200" stroke="#008200" points="1099.132,-897.5893 1095.6319,-887.5894 1092.132,-897.5894 1099.132,-897.5893"/>
</g>
<!-- Thinkable -->
<g id="node21" class="node">
<title>Thinkable</title>
<polygon fill="none" stroke="#000000" points="1250.4015,-821.1 1250.4015,-887.5 1385.9041,-887.5 1385.9041,-821.1 1250.4015,-821.1"/>
<text text-anchor="middle" x="1318.1528" y="-870.9" font-family="Times,serif" font-size="14.00" fill="#000000">&lt;&lt;interface&gt;&gt;</text>
<text text-anchor="middle" x="1318.1528" y="-854.1" font-family="Times,serif" font-size="14.00" fill="#000000">Thinkable</text>
<polyline fill="none" stroke="#000000" points="1250.4015,-845.9 1385.9041,-845.9 "/>
<text text-anchor="start" x="1258.4015" y="-829.3" font-family="Times,serif" font-size="14.00" fill="#000000">+ think(String) : void</text>
</g>
<!-- Person&#45;&gt;Thinkable -->
<g id="edge29" class="edge">
<title>Person-&gt;Thinkable</title>
<path fill="none" stroke="#008200" stroke-dasharray="5,2" d="M1148.3585,-1067C1223.4527,-1067 1318.1528,-1067 1318.1528,-1067 1318.1528,-1067 1318.1528,-897.5344 1318.1528,-897.5344"/>
<polygon fill="#008200" stroke="#008200" points="1321.6529,-897.5343 1318.1528,-887.5344 1314.6529,-897.5344 1321.6529,-897.5343"/>
</g>
<!-- Visualizeable -->
<g id="node22" class="node">
<title>Visualizeable</title>
<polygon fill="none" stroke="#000000" points="1403.912,-821.1 1403.912,-887.5 1560.3936,-887.5 1560.3936,-821.1 1403.912,-821.1"/>
<text text-anchor="middle" x="1482.1528" y="-870.9" font-family="Times,serif" font-size="14.00" fill="#000000">&lt;&lt;interface&gt;&gt;</text>
<text text-anchor="middle" x="1482.1528" y="-854.1" font-family="Times,serif" font-size="14.00" fill="#000000">Visualizeable</text>
<polyline fill="none" stroke="#000000" points="1403.912,-845.9 1560.3936,-845.9 "/>
<text text-anchor="start" x="1411.912" y="-829.3" font-family="Times,serif" font-size="14.00" fill="#000000">+ visualize(String) : void</text>
</g>
<!-- Person&#45;&gt;Visualizeable -->
<g id="edge30" class="edge">
<title>Person-&gt;Visualizeable</title>
<path fill="none" stroke="#008200" stroke-dasharray="5,2" d="M1148.0723,-1148C1272.5337,-1148 1482.1528,-1148 1482.1528,-1148 1482.1528,-1148 1482.1528,-897.7052 1482.1528,-897.7052"/>
<polygon fill="#008200" stroke="#008200" points="1485.6529,-897.7051 1482.1528,-887.7052 1478.6529,-897.7052 1485.6529,-897.7051"/>
</g>
<!-- Plant&#45;&gt;Growable -->
<g id="edge31" class="edge">
<title>Plant-&gt;Growable</title>
<path fill="none" stroke="#008200" stroke-dasharray="5,2" d="M598.3166,-621.7338C598.3166,-621.7338 598.3166,-523.3927 598.3166,-523.3927"/>
<polygon fill="#008200" stroke="#008200" points="601.8166,-523.3927 598.3166,-513.3927 594.8166,-523.3928 601.8166,-523.3927"/>
</g>
<!-- Plant&#45;&gt;InanimateObject -->
<g id="edge32" class="edge">
<title>Plant-&gt;InanimateObject</title>
<path fill="none" stroke="#000082" d="M662.5241,-621.7338C662.5241,-621.7338 662.5241,-568.9585 662.5241,-568.9585"/>
<polygon fill="#000082" stroke="#000082" points="666.0242,-568.9584 662.5241,-558.9585 659.0242,-568.9585 666.0242,-568.9584"/>
</g>
<!-- StoryGenerator -->
<g id="node20" class="node">
<title>StoryGenerator</title>
<polygon fill="none" stroke="#000000" points="688.7556,-1286.3 688.7556,-1352.7 847.55,-1352.7 847.55,-1286.3 688.7556,-1286.3"/>
<text text-anchor="middle" x="768.1528" y="-1336.1" font-family="Times,serif" font-size="14.00" fill="#000000">&lt;&lt;interface&gt;&gt;</text>
<text text-anchor="middle" x="768.1528" y="-1319.3" font-family="Times,serif" font-size="14.00" fill="#000000">StoryGenerator</text>
<polyline fill="none" stroke="#000000" points="688.7556,-1311.1 847.55,-1311.1 "/>
<text text-anchor="start" x="696.7556" y="-1294.5" font-family="Times,serif" font-size="14.00" fill="#000000">+ generateOutput() : void</text>
</g>
</g>
</svg>